<svg id="Layer_5" enable-background="new 0 0 64 64" height="512" viewBox="0 0 64 64" width="512" xmlns="http://www.w3.org/2000/svg"><path d="m43 8c0-1.1-.9-2-2-2h-4.17l-.01-.01c2.67-2.48 6.25-3.99 10.18-3.99 4.9 0 9.25 2.35 11.99 5.99l-.01.01h-7.98c-1.66 0-3 1.34-3 3s1.34 3 3 3h2c1.66 0 3 1.34 3 3s-1.34 3-3 3h-3.83-.01c-1.54-3.53-5.06-6-9.16-6-.69 0-1.36.07-2.01.2.01-.06.01-.13.01-.2v-2c0-1.1.9-2 2-2h1c1.1 0 2-.9 2-2z" fill="#3bafda"/><path d="m49.8 26h9.18l.01.01c-2.74 3.64-7.09 5.99-11.99 5.99-.32 0-.64-.01-.96-.03 1.9-1.44 3.27-3.55 3.76-5.97z" fill="#3bafda"/><path d="m58.98 26h-9.18c.13-.64.2-1.31.2-2 0-1.42-.3-2.78-.84-4h.01 3.83c1.66 0 3-1.34 3-3s-1.34-3-3-3h-2c-1.66 0-3-1.34-3-3s1.34-3 3-3h7.98l.01-.01c1.89 2.51 3.01 5.63 3.01 9.01s-1.12 6.5-3.01 9.01z" fill="#b4dd7f"/><path d="m41 6c1.1 0 2 .9 2 2s-.9 2-2 2h-1c-1.1 0-2 .9-2 2v2c0 .07 0 .14-.01.2-2.42.5-4.52 1.86-5.96 3.76-.02-.32-.03-.64-.03-.96 0-4.35 1.85-8.27 4.82-11.01l.01.01z" fill="#b4dd7f"/><path d="m11 3c-1.03 0-2.02.2-2.93.56-2.07.81-3.71 2.45-4.52 4.52-.35.9-.55 1.89-.55 2.92 0 4.42 3.58 8 8 8 1.03 0 2.02-.2 2.92-.55 2.07-.81 3.71-2.45 4.52-4.52.36-.91.56-1.9.56-2.93 0-4.42-3.58-8-8-8z" fill="#69d6f4"/><path d="m44 53c0-1.85.56-3.57 1.52-5 1.76-.01 3.41-.69 4.66-1.94l2.02-2.02c.27-.02.53-.04.8-.04 4.97 0 9 4.03 9 9s-4.03 9-9 9-9-4.03-9-9z" fill="#fcd770"/><circle cx="56" cy="56" fill="#ffeaa7" r="2"/><circle cx="49" cy="52" fill="#ffeaa7" r="2"/><path d="m11 53-2.96 2.96c-.67.67-1.57 1.04-2.5 1.04-.98 0-1.86-.4-2.5-1.04s-1.04-1.52-1.04-2.5v-.08c0-.89.33-1.74.94-2.4l2.9-3.14z" fill="#ffeaa7"/><path d="m16.17 58.17-3.16 2.9c-.65.6-1.5.93-2.39.93h-.08c-1.96 0-3.54-1.58-3.54-3.54 0-.93.37-1.83 1.04-2.5l2.96-2.96z" fill="#ffeaa7"/><g fill="#ccd1d9"><path d="m21 43-10 10-5.16-5.16 7.72-8.38 1.87-2.03z"/><path d="m26.59 48.59-2.03 1.87-8.39 7.71-5.17-5.17 10-10z"/><path d="m22.1 30.19-.09-.08c-.41-.07-.83-.11-1.25-.11h-4.53-10.23c-1.65 0-3-1.35-3-3s1.35-3 3-3h14.76c.4 0 .8.02 1.19.05 1.69.15 3.31.62 4.8 1.38l-4.16 4.16c-.12.12-.23.26-.31.41z"/><path d="m31.59 41.41c.37.38.88.59 1.41.59s1.04-.21 1.41-.59l-4.69 4.31-11.41-11.41 3.79-4.12.18-.19c-.19.3-.28.64-.28 1 0 .53.21 1.04.59 1.41.37.38.88.59 1.41.59s1.04-.21 1.41-.59l4.62-4.62.09.09c.06.06.52.49 1.25 1.18h.01c.82 1.4 1.97 2.57 3.34 3.43.44.41.96.89 1.54 1.42l-4.67 4.68c-.38.37-.59.88-.59 1.41s.21 1.04.59 1.41z"/><path d="m56.12 35.88c.57.57.88 1.32.88 2.12s-.31 1.55-.88 2.12l-3.92 3.92-2.02 2.02c-1.25 1.25-2.9 1.93-4.66 1.94-.01 0-.01 0-.02 0-1.77 0-3.43-.69-4.68-1.94 0 0-.99-.92-2.46-2.29-.94-.87-2.06-1.93-3.26-3.04l4.13-4.13c1.14 1.03 2.28 2.05 3.25 2.92 1.5 1.34 2.58 2.3 2.58 2.3.1.1.26.15.44.15s.34-.05.44-.15l5.94-5.94c.57-.57 1.32-.88 2.12-.88s1.55.31 2.12.88z"/></g><path d="m29.72 45.72-3.13 2.87-5.59-5.59-5.57-5.57 2.88-3.12z" fill="#b4dd7f"/><path d="m30.03 27.79-4.62 4.62c-.37.38-.88.59-1.41.59s-1.04-.21-1.41-.59c-.38-.37-.59-.88-.59-1.41 0-.36.09-.7.28-1 .08-.15.19-.29.31-.41l4.16-4.16c1.19.61 2.3 1.4 3.28 2.36z" fill="#b4dd7f"/><path d="m36.26 33.91c.9.82 1.94 1.76 2.97 2.69l-4.13 4.13-.69.68c-.37.38-.88.59-1.41.59s-1.04-.21-1.41-.59c-.38-.37-.59-.88-.59-1.41s.21-1.04.59-1.41z" fill="#b4dd7f"/><path d="m22.1 30.19-3.79 4.12-2.88 3.12-1.87 2.03-.54-.49c-.66-.84-1.02-1.89-1.02-2.97 0-1.28.51-2.51 1.41-3.41l2.82-2.59h4.53c.42 0 .84.04 1.25.11z" fill="#fcd770"/><path d="m30 24c0 1.85.5 3.58 1.38 5.06h-.01c-.73-.69-1.19-1.12-1.25-1.18-.03-.03-.06-.06-.09-.09-.98-.96-2.09-1.75-3.28-2.36-1.49-.76-3.11-1.23-4.8-1.38l2.64-2.64c.9-.9 2.13-1.41 3.41-1.41.91 0 1.79.26 2.55.73-.36 1.02-.55 2.12-.55 3.27z" fill="#fcd770"/><path d="m29.72 45.72 4.69-4.31.69-.68c1.2 1.11 2.32 2.17 3.26 3.04l-6.95 6.82c-.9.9-2.13 1.41-3.41 1.41-1.08 0-2.13-.36-2.97-1.02l-.47-.52 2.03-1.87z" fill="#fcd770"/><path d="m34.72 32.49c1.53.96 3.34 1.51 5.28 1.51 1.15 0 2.25-.19 3.27-.55.47.76.73 1.64.73 2.55 0 1.28-.51 2.51-1.41 3.41l-.11.11c-.97-.87-2.11-1.89-3.25-2.92-1.03-.93-2.07-1.87-2.97-2.69-.58-.53-1.1-1.01-1.54-1.42z" fill="#fcd770"/><path d="m50 24c0 .69-.07 1.36-.2 2-.49 2.42-1.86 4.53-3.76 5.97-.83.63-1.76 1.13-2.77 1.48-1.02.36-2.12.55-3.27.55-1.94 0-3.75-.55-5.28-1.51-1.37-.86-2.52-2.03-3.34-3.43-.88-1.48-1.38-3.21-1.38-5.06 0-1.15.19-2.25.55-3.27.35-1.01.85-1.94 1.48-2.77 1.44-1.9 3.54-3.26 5.96-3.76.65-.13 1.32-.2 2.01-.2 4.1 0 7.62 2.47 9.16 6 .54 1.22.84 2.58.84 4z" fill="#e6e9ed"/><circle cx="40" cy="24" fill="#69d6f4" r="6"/><path d="m40 31c3.86 0 7-3.141 7-7s-3.14-7-7-7-7 3.141-7 7 3.14 7 7 7zm0-12c2.757 0 5 2.243 5 5s-2.243 5-5 5-5-2.243-5-5 2.243-5 5-5z"/><path d="m54.527 43.129 2.301-2.301c.756-.755 1.172-1.76 1.172-2.828s-.416-2.073-1.172-2.828c-1.511-1.512-4.146-1.512-5.656 0l-5.687 5.686c-.302-.269-.878-.782-1.607-1.433.717-.991 1.122-2.196 1.122-3.425 0-.699-.138-1.383-.38-2.031.602-.28 1.175-.61 1.713-.99.222.009.443.021.667.021 8.822 0 16-7.178 16-16s-7.178-16-16-16-16 7.178-16 16c0 .224.012.445.021.667-.38.537-.71 1.111-.99 1.713-.648-.242-1.332-.38-2.031-.38-1.557 0-3.021.606-4.121 1.707l-2.331 2.331c-.264-.014-.525-.038-.791-.038h-14.757c-2.206 0-4 1.794-4 4s1.794 4 4 4h7.663l-.956.879c-1.085 1.085-1.707 2.587-1.707 4.121 0 1.254.42 2.485 1.171 3.489l-9.971 10.818c-.774.84-1.2 1.932-1.2 3.158 0 2.501 2.035 4.535 4.536 4.535.175 0 .344-.031.515-.05-.02.171-.051.34-.051.515 0 2.501 2.035 4.535 4.623 4.535 1.14 0 2.229-.425 3.068-1.195l10.844-9.959c1 .739 2.22 1.154 3.465 1.154 1.557 0 3.021-.606 4.115-1.7l6.262-6.148 1.735 1.617c1.059 1.058 2.375 1.763 3.805 2.064-.598 1.3-.917 2.715-.917 4.167 0 5.514 4.486 10 10 10s10-4.486 10-10c0-4.993-3.683-9.132-8.473-9.871zm-11.527-7.129c0 .739-.224 1.465-.623 2.082-1.089-.975-2.317-2.078-3.491-3.139.367.038.738.057 1.114.057.948 0 1.863-.133 2.741-.36.165.434.259.892.259 1.36zm-27.541 2.873 4.127 4.127-8.586 8.586-3.778-3.778zm5.541 5.541 4.15 4.15-8.951 8.221-3.785-3.785zm5.625 2.797-9.809-9.809 1.521-1.651 9.941 9.941zm3.127-2.873-10.059-10.059 1.692-1.836c.135.243.292.476.494.678.567.567 1.32.879 2.121.879s1.555-.312 2.121-.879l3.932-3.932c.165.155.353.331.573.537.867 1.414 2.04 2.619 3.433 3.517.229.213.486.451.757.7l-3.936 3.936c-.568.566-.88 1.32-.88 2.121s.312 1.555.879 2.121c.215.215.462.38.723.518zm-1.17-16.506-3.875 3.875c-.384.383-1.03.383-1.414 0-.191-.191-.293-.436-.293-.707s.102-.516.293-.707l3.621-3.621c.582.34 1.143.722 1.668 1.16zm11.418-12.832c4.962 0 9 4.037 9 9s-4.038 9-9 9-9-4.037-9-9 4.038-9 9-9zm10.574 12h6.206c-2.178 2.13-5.044 3.557-8.232 3.91.921-1.139 1.615-2.465 2.026-3.91zm-16.854 13.694-.017.015c-.384.379-1.027.379-1.41-.003-.191-.19-.293-.435-.293-.706s.102-.516.293-.707l4-4c.477.434.975.885 1.484 1.344zm24.753-15.694h-7.523c.029-.33.05-.662.05-1 0-1.041-.155-2.045-.426-3h2.426c2.206 0 4-1.794 4-4s-1.794-4-4-4h-2.004c-1.103 0-2-.897-2-2s.897-2 2-2h7.477c1.588 2.27 2.527 5.026 2.527 8s-.939 5.73-2.527 8zm-1.694-18h-5.783c-2.206 0-4 1.794-4 4s1.794 4 4 4h2.004c1.103 0 2 .897 2 2s-.897 2-2 2h-3.214c-1.825-3.556-5.521-6-9.786-6-.338 0-.67.021-1 .051v-1.051c0-.552.449-1 1-1h1c1.654 0 3-1.346 3-3s-1.346-3-3-3h-1.174c2.101-1.261 4.55-2 7.174-2 3.804 0 7.254 1.53 9.779 4zm-19.558 0h3.779c.551 0 1 .448 1 1s-.449 1-1 1h-1c-1.654 0-3 1.346-3 3v1.426c-1.445.411-2.771 1.104-3.91 2.026.365-3.296 1.878-6.249 4.131-8.452zm-11.928 15.121c1.054-1.052 2.69-1.368 4.066-.86-.226.877-.359 1.792-.359 2.739 0 .599.061 1.183.154 1.756-1.542-1.132-3.279-1.933-5.13-2.366zm-21.293 4.879c0-1.103.897-2 2-2h14.757c1.47 0 2.896.271 4.236.765l-3.114 3.114c-.057.057-.1.124-.152.184-.321-.037-.645-.063-.97-.063h-14.757c-1.103 0-2-.897-2-2zm9 9c0-1.008.409-1.994 1.091-2.678l2.526-2.322h3.378l-6.432 6.978c-.359-.595-.563-1.28-.563-1.978zm-7.464 20c-1.398 0-2.536-1.138-2.536-2.619 0-.639.238-1.249.671-1.719l2.195-2.382 3.72 3.72-2.258 2.258c-.478.478-1.115.742-1.792.742zm6.801 4.332c-.468.431-1.077.668-1.801.668-1.398 0-2.536-1.138-2.536-2.535 0-.677.264-1.313.743-1.793l2.257-2.258 3.725 3.725zm18.37-10.453c-.723.723-1.685 1.121-2.707 1.121-.688 0-1.362-.196-1.951-.546l9.042-8.304-.002-.002c.01-.01.023-.017.033-.027l.001-.001 1.789 1.667zm5.83-9.174 2.728-2.728c2.637 2.37 5.072 4.535 5.09 4.55.573.569 1.72.568 2.292-.003l5.939-5.938c.756-.756 2.072-.756 2.828 0 .378.378.586.88.586 1.414s-.208 1.036-.586 1.414l-5.939 5.939c-1.026 1.026-2.381 1.594-3.825 1.632l-.165.013c-1.495-.004-2.901-.587-3.985-1.668zm16.463 20.295c-4.411 0-8-3.589-8-8 0-1.429.396-2.807 1.114-4.03 1.803-.143 3.481-.909 4.775-2.203l1.749-1.749c.12-.006.24-.018.362-.018 4.411 0 8 3.589 8 8s-3.589 8-8 8z"/><path d="m56 53c-1.654 0-3 1.346-3 3s1.346 3 3 3v-2c-.551 0-1-.448-1-1s.449-1 1-1 1 .448 1 1h2c0-1.654-1.346-3-3-3z"/><path d="m49 49v2c.551 0 1 .448 1 1s-.449 1-1 1-1-.448-1-1h-2c0 1.654 1.346 3 3 3s3-1.346 3-3-1.346-3-3-3z"/><path d="m2.461 8.176c-.295.889-.461 1.837-.461 2.824 0 4.963 4.038 9 9 9 .988 0 1.936-.166 2.826-.461 1.623.911 3.15 1.456 4.393 1.456.814 0 1.506-.234 2.024-.752 1.203-1.202.938-3.473-.707-6.409.297-.892.464-1.843.464-2.834 0-4.963-4.038-9-9-9-.991 0-1.942.167-2.834.464-2.936-1.645-5.205-1.908-6.409-.707-.771.77-1.343 2.378.3 5.666.124.247.261.499.404.753zm8.539 9.824c-3.86 0-7-3.141-7-7 0-.143.013-.283.021-.424.971 1.328 2.128 2.679 3.426 3.977 1.263 1.263 2.623 2.434 3.979 3.426-.141.008-.282.021-.426.021zm7.829.829c-.32.322-1.316.235-2.762-.397.927-.634 1.73-1.437 2.364-2.364.689 1.579.661 2.498.398 2.761zm-.829-7.829c0 2.788-1.643 5.194-4.008 6.319-1.502-.941-3.254-2.305-5.13-4.18-1.694-1.694-3.134-3.471-4.178-5.136 1.125-2.362 3.53-4.003 6.316-4.003 3.86 0 7 3.141 7 7zm-14.829-7.829c.263-.263 1.182-.291 2.76.398-.926.634-1.728 1.436-2.362 2.362-.654-1.504-.684-2.474-.398-2.76z"/></svg>