<svg id="_x33_0" enable-background="new 0 0 64 64" height="512" viewBox="0 0 64 64" width="512" xmlns="http://www.w3.org/2000/svg"><circle cx="44" cy="20" fill="#fcd770" r="18"/><path d="m38.23 37.08-3.23 2.95-7.29 6.65-3.15 2.88-.48.44-.04-.04c.61-.63.96-1.49.96-2.37v-.18c0-.9-.36-1.77-1-2.41s-1.51-1-2.41-1h-.18c-.9 0-1.77.36-2.41 1 .64-.64 1-1.51 1-2.41v-.18c0-.9-.36-1.77-1-2.41s-1.51-1-2.41-1h-.18c-.88 0-1.74.35-2.37.96l-.04-.04.44-.48 2.88-3.15 6.65-7.29 2.95-3.23 4.02-4.4c1.36-1.49 2.98-2.72 4.75-3.62.72-.37 1.47-.69 2.25-.94l.06.19 9 9 .19.06c-.89 2.66-2.45 5.08-4.56 7z" fill="#e6e9ed"/><path d="m17 47-5-5-3 3 5 5 5 5 3-3z" fill="#fcd770"/><path d="m23.97 29-6.65 7.29-.32-.29-7-7z" fill="#ccd1d9"/><path d="m35 40.03v13.97l-7-7-.29-.32z" fill="#ccd1d9"/><path d="m17.32 36.29-2.88 3.15-7.44-7.44 3-3 7 7z" fill="#ed5565"/><path d="m35 54-3 3-7.44-7.44 3.15-2.88.29.32z" fill="#ed5565"/><path d="m24 45c-.64-.64-1.51-1-2.41-1h-.18c-.9 0-1.77.36-2.41 1 .64-.64 1-1.51 1-2.41v-.18c0-.9-.36-1.77-1-2.41s-1.51-1-2.41-1h-.18c-.88 0-1.74.35-2.37.96-.01.01-.03.03-.04.04l-2 2 5 5 5 5 2-2c.01-.01.03-.03.04-.04.61-.63.96-1.49.96-2.37v-.18c0-.9-.36-1.77-1-2.41z" fill="#ccd1d9"/><path d="m48 21.93c0 .22-.02.44-.04.66-.13 1.19-.39 2.35-.77 3.47l-.19-.06-9-9-.06-.19c1.12-.38 2.28-.64 3.47-.77.22-.02.44-.04.66-.04 1.56 0 3.08.62 4.19 1.74 1.12 1.11 1.74 2.63 1.74 4.19z" fill="#ef7385"/><path d="m35.879 26.879h4.243v4.243h-4.243z" fill="#69d6f4" transform="matrix(.707 -.707 .707 .707 -9.376 35.364)"/><path d="m32.879 23.879h4.243v4.243h-4.243z" fill="#69d6f4" transform="matrix(.707 -.707 .707 .707 -8.134 32.364)"/><g fill="#ffeaa7"><path d="m28.87 10.28c1.25.53 2.13 1.77 2.13 3.22 0 1.93-1.57 3.5-3.5 3.5-.42 0-.82-.09-1.2-.22.41-2.36 1.3-4.56 2.56-6.5z"/><circle cx="55" cy="13" r="2"/><circle cx="43" cy="11" r="2"/><path d="m52.05 36.1c-2.42 1.22-5.15 1.9-8.05 1.9 0-1 1-4 4-4s4 2 4 2z"/><circle cx="54" cy="25" r="2"/></g><path d="m33.586 29 .707.707 3.707 3.707 4.414-4.414-3.707-3.707-.707-.707-3-3-4.414 4.414zm6 0-1.586 1.586-1.586-1.586 1.586-1.586zm-3-3-1.586 1.586-1.586-1.586 1.586-1.586z"/><path d="m.343 54h11.314v2h-11.314z" transform="matrix(.707 -.707 .707 .707 -37.134 20.352)"/><path d="m2.172 49h5.657v2h-5.657z" transform="matrix(.707 -.707 .707 .707 -33.891 18.18)"/><path d="m9.964 58.5h7.071v2h-7.071z" transform="matrix(.707 -.707 .707 .707 -38.119 26.973)"/><path d="m8.172 55h5.657v2h-5.657z" transform="matrix(.707 -.707 .707 .707 -36.376 24.18)"/><path d="m44 1c-10.477 0-19 8.523-19 19 0 1.915.281 3.759.805 5.506l-2.277 2.494h-13.942l-4 4 7.5 7.5-5.5 5.5 5 5 .707.707 5.707 5.707 5.5-5.5 7.5 7.5 4-4v-13.942l2.495-2.278c1.747.525 3.59.806 5.505.806 10.477 0 19-8.523 19-19s-8.523-19-19-19zm-14 12.5c0 1.379-1.122 2.5-2.5 2.5-.002 0-.003 0-.005 0 .371-1.531.941-2.982 1.696-4.321.5.464.809 1.112.809 1.821zm16.97 8.978c-.067.598-.179 1.185-.312 1.766l-6.902-6.902c.581-.133 1.168-.245 1.766-.312 1.498-.166 2.968.349 4.033 1.415 1.066 1.066 1.581 2.535 1.415 4.033zm-9.383-4.477 8.411 8.411c-.868 2.238-2.239 4.266-4.039 5.91l-16.006 14.615c-.107-.997-.527-1.925-1.246-2.644-.833-.834-1.941-1.293-3.121-1.293h-.172c-.156 0-.306.029-.459.045.016-.153.045-.303.045-.459v-.172c0-1.179-.459-2.287-1.292-3.121-.719-.72-1.647-1.139-2.645-1.246l14.615-16.007c1.643-1.8 3.671-3.171 5.909-4.039zm-20.587 27.585-3.586-3.586 1.293-1.293c.456-.456 1.062-.707 1.707-.707h.172c.645 0 1.251.251 1.707.707s.707 1.063.707 1.707v.172c0 .645-.251 1.251-.708 1.707zm.269-10.731-4.855-4.855h9.288zm-7.269-4.441 5.919 5.919-1.514 1.658-5.991-5.991zm.414 14.586 1.586-1.586 3.586 3.586-1.586 1.586zm5 5 1.586-1.586 3.586 3.586-1.586 1.586zm6.586.586-3.586-3.586 1.293-1.293c.456-.456 1.062-.707 1.707-.707h.172c.645 0 1.251.251 1.707.707s.707 1.063.707 1.707v.172c0 .645-.251 1.251-.707 1.707zm4.009-.991 1.658-1.514 5.919 5.919-1.586 1.586zm7.991 1.991-4.855-4.855 4.855-4.433zm11.283-14.651c.368-.871 1.157-1.935 2.717-1.935 1.173 0 1.947.364 2.431.728-1.608.66-3.34 1.071-5.148 1.207zm7.065-2.143c-.671-.753-2.016-1.792-4.348-1.792-2.866 0-4.395 2.232-4.85 3.966-.991-.046-1.958-.172-2.896-.378l3.055-2.789c3.168-2.893 5.175-6.835 5.649-11.101.233-2.104-.492-4.17-1.988-5.667-1.498-1.499-3.568-2.222-5.668-1.989-4.266.475-8.208 2.481-11.101 5.65l-2.789 3.054c-.264-1.205-.412-2.455-.412-3.746 0-.69.053-1.366.134-2.034.122.011.245.034.366.034 2.481 0 4.5-2.019 4.5-4.5 0-1.396-.646-2.678-1.704-3.518 3.096-4.223 8.078-6.982 13.704-6.982 9.374 0 17 7.626 17 17 0 3.74-1.228 7.19-3.283 10h-6.717v2h5.029c-1.089 1.091-2.33 2.027-3.681 2.792z"/><path d="m34 9h2v2h-2z"/><path d="m38 5h2v2h-2z"/><path d="m49 15h2v2h-2z"/><path d="m54 28c1.654 0 3-1.346 3-3s-1.346-3-3-3-3 1.346-3 3 1.346 3 3 3zm0-4c.551 0 1 .448 1 1s-.449 1-1 1-1-.448-1-1 .449-1 1-1z"/><path d="m55 16c1.654 0 3-1.346 3-3h-2c0 .552-.449 1-1 1s-1-.448-1-1 .449-1 1-1v-2c-1.654 0-3 1.346-3 3s1.346 3 3 3z"/><path d="m43 8c-1.654 0-3 1.346-3 3h2c0-.552.449-1 1-1s1 .448 1 1-.449 1-1 1v2c1.654 0 3-1.346 3-3s-1.346-3-3-3z"/><path d="m49 6h2v2h-2z"/><path d="m57 18h2v2h-2z"/></svg>